<svg width="234" height="50" viewBox="0 0 234 50" fill="none" xmlns="http://www.w3.org/2000/svg">
<path d="M12.0573 13.7783C12.0573 13.7783 14.045 12.5509 18.5436 13.9317C23.0422 15.3125 22.4145 20.8868 21.7868 21.8584L26.9654 27.2281C26.9654 27.2281 28.2731 28.4555 27.2792 30.7056C26.2853 32.9558 26.1807 33.2626 26.7038 34.7968C26.7038 34.7968 25.3176 34.1064 25.1084 32.5722C25.1084 32.5722 24.7422 31.1403 25.3176 30.0664C25.3176 30.0664 25.6838 29.4527 26.1023 29.1459C26.5207 28.839 26.1546 27.8674 25.9976 27.8674C25.8407 27.8674 23.7484 28.9924 23.7484 28.9924C23.7484 28.9924 21.4468 30.6801 23.3299 33.3905L22.336 38.0442L21.0806 38.2999L21.4991 33.8507C21.4991 33.8507 16.9482 32.0097 18.8836 27.1003L15.7189 25.2337H13.1343L14.9081 28.1231L13.862 28.5322L10.5665 24.441L13.9143 23.2648L11.7173 22.3442L9.57262 25.2337L8.05566 24.799L10.5142 20.8612C10.5142 20.8612 17.9421 21.7817 15.5358 17.2814L14.2804 18.7644L12.5019 18.253L13.6004 14.4175L12.0573 13.7783Z" fill="#1E1E1D"/>
<path d="M19.7205 33.3387L20.9759 34.1058L19.3544 37.8391L18.0466 37.6345L19.7205 33.3387Z" fill="#1E1E1D"/>
<path d="M16.6343 26.3843C16.6343 26.3843 14.2803 29.0948 17.3143 31.0381L18.0466 35.8856L16.9052 36.4993L15.7638 32.1136C15.7638 32.1136 10.9326 32.0113 10.9326 26.6927L7.21864 25.9256L4.91704 26.795L7.53249 28.994L6.74786 29.6588L2.30159 26.8973L4.86473 24.6983L2.61545 24.5448L1.46465 28.0224L0 28.0735L0.889252 23.6243C0.889252 23.6243 8.21251 22.1413 4.39395 18.5103L3.76625 20.4025L1.93543 20.4536L1.62158 16.567L0 16.3762C0 16.3762 2.72007 13.9077 7.0094 14.5214C11.2987 15.1351 11.9264 20.4536 11.9264 20.4536H10.1479L7.37556 25.1074L9.77393 25.7896L10.4095 24.9524L13.7049 28.9925L15.3788 28.2765L13.8096 25.6172L15.4311 25.5661L16.6343 26.3843Z" fill="#1E1E1D"/>
<path d="M14.045 32.3416L15.405 32.5973L15.1095 36.4993L13.8358 36.5862L14.045 32.3416Z" fill="#1E1E1D"/>
<path d="M42.5263 26.0928C40.3816 25.944 38.4404 28.5644 38.1956 31.9453C37.9508 35.3261 39.4923 38.1844 41.6391 38.3378C43.7859 38.4912 45.725 35.8662 45.9698 32.4853C46.2146 29.1045 44.673 26.2462 42.5263 26.0928ZM45.2463 32.3984C45.0371 35.2929 43.5023 37.5451 41.8201 37.4285C40.1378 37.3119 38.9431 34.8715 39.1523 31.9765C39.3616 29.0814 40.8963 26.8303 42.5786 26.9469C44.2608 27.0635 45.4556 29.5039 45.2463 32.3984Z" fill="#1E1E1D"/>
<path d="M42.8671 32.2398C42.8346 32.6914 42.5867 33.0422 42.3137 33.0233C42.0407 33.0044 41.843 32.6229 41.8785 32.1713C41.9141 31.7197 42.1589 31.3689 42.4319 31.3878C42.7049 31.4067 42.9026 31.7883 42.8671 32.2398Z" fill="#1E1E1D"/>
<path d="M62.6134 27.848C61.4416 27.4747 60.0753 28.9639 59.5616 31.1751C59.048 33.3864 59.5815 35.4816 60.7527 35.8555C61.9239 36.2293 63.2908 34.7396 63.8044 32.5283C64.3181 30.317 63.7851 28.2218 62.6134 27.848ZM63.2866 32.3391C62.8801 34.0891 61.8627 35.2883 61.0137 35.0178C60.1648 34.7473 59.8064 33.1087 60.2129 31.3587C60.6193 29.6087 61.6373 28.4095 62.4862 28.68C63.3352 28.9506 63.6935 30.5891 63.2866 32.3391Z" fill="#1E1E1D"/>
<path d="M62.1167 31.9683C62.0477 32.2634 61.8714 32.4644 61.7224 32.4168C61.5733 32.3692 61.5085 32.0915 61.577 31.796C61.6455 31.5004 61.8218 31.2999 61.9708 31.3475C62.1199 31.395 62.1853 31.6727 62.1167 31.9683Z" fill="#1E1E1D"/>
<path d="M32.4301 27.9532C30.7729 28.0591 29.5714 30.2596 29.7456 32.8688C29.9198 35.4779 31.4043 37.5067 33.0609 37.4008C34.7176 37.2949 35.9196 35.0944 35.7449 32.4857C35.5702 29.8771 34.0867 27.8473 32.4301 27.9532V27.9532ZM35.056 32.5047C35.1972 34.6183 34.3153 36.3959 33.0866 36.4742C31.8578 36.5524 30.7468 34.9026 30.6056 32.7885C30.4643 30.6744 31.3463 28.8972 32.575 28.8185C33.8037 28.7397 34.9148 30.3905 35.056 32.5047Z" fill="#1E1E1D"/>
<path d="M33.3467 32.6152C33.3697 32.9635 33.218 33.257 33.0073 33.2703C32.7965 33.2836 32.6066 33.0121 32.5836 32.6638C32.5606 32.3156 32.7123 32.0215 32.9231 32.0082C33.1338 31.9949 33.3232 32.2639 33.3467 32.6152Z" fill="#1E1E1D"/>
<path d="M32.9255 32.0081L38.464 31.8486V33.2534L33.0097 33.2703L32.9255 32.0081Z" fill="#1E1E1D"/>
<path d="M61.8459 18.474C61.463 18.611 58.7953 18.3042 56.4414 15.2358C56.4414 15.2358 56.1275 14.7755 55.8137 14.9801C55.4998 15.1846 50.4781 15.6541 47.9412 12.1208C47.9412 12.1208 47.0781 11.3491 47.0781 11.9117V14.5035C47.0781 14.5035 56.2844 16.3097 61.5153 20.4009C61.5153 20.4009 57.3829 17.1939 47.0781 14.9366L37.1917 16.7188V17.0062L47.0257 15.3381V25.4638L44.9334 25.0035H44.2011V20.5032C44.2011 20.5032 44.1488 20.0429 43.521 19.8895C42.8933 19.7361 40.3302 18.5599 40.3302 18.5599H40.0687V19.327L34.5239 20.6055L35.047 21.0146L40.0687 19.8895V24.2875C40.0687 24.2875 33.4254 23.2647 31.0192 15.9006L23.1205 18.1508C23.1205 18.1508 25.8406 25.8217 34.3147 25.1569L40.1733 24.5944L42.9456 24.9524L40.4871 25.0546L38.4471 27.1002L30.2346 27.4071V27.7651L38.6563 27.6628L40.8889 25.788L44.4103 25.6683L47.9412 32.0353C47.9412 32.0353 55.3167 32.9558 62.2738 26.461V18.5946C62.2738 18.5946 62.2283 18.3389 61.8459 18.474V18.474ZM48.3858 23.5281V16.3097C51.4626 16.8758 53.8746 17.5749 55.7352 18.2658V24.7734C51.018 24.7821 48.3858 23.5286 48.3858 23.5286V23.5281ZM61.2015 24.2369C59.7262 24.5194 58.2311 24.6921 56.7291 24.7534V18.6545C59.9989 20.003 61.2015 21.2176 61.2015 21.2176V24.2369Z" fill="#1E1E1D"/>
<path d="M46.215 16.4375V16.9157L38.2641 18.074V18.859L37.7933 18.9428V17.7881L46.215 16.4375Z" fill="#1E1E1D"/>
<path d="M41.1932 12.3463L41.6054 12.4486C41.6054 12.4486 42.5129 13.676 43.3378 13.7271C43.3378 13.7271 42.1829 14.2896 41.1932 12.3463Z" fill="#1E1E1D"/>
<path d="M37.0608 13.7271L37.6022 13.8028C37.6022 13.8028 37.7408 14.6476 38.3162 14.7499C38.3162 14.7499 37.6362 15.4658 37.0608 13.7271Z" fill="#1E1E1D"/>
<path d="M96.552 16.912C98.104 16.912 99.456 17.216 100.608 17.824C101.76 18.432 102.656 19.328 103.296 20.512C103.936 21.696 104.256 23.128 104.256 24.808V34H100.368V29.968H92.688V34H88.848V24.808C88.848 23.128 89.168 21.696 89.808 20.512C90.448 19.328 91.344 18.432 92.496 17.824C93.648 17.216 95 16.912 96.552 16.912ZM100.368 26.848V24.448C100.368 23.056 100.024 22.008 99.336 21.304C98.648 20.584 97.712 20.224 96.528 20.224C95.328 20.224 94.384 20.584 93.696 21.304C93.024 22.008 92.688 23.056 92.688 24.448V26.848H100.368ZM120.982 16.192V34H117.406V32.512C116.478 33.632 115.134 34.192 113.374 34.192C112.158 34.192 111.054 33.92 110.062 33.376C109.086 32.832 108.318 32.056 107.758 31.048C107.198 30.04 106.918 28.872 106.918 27.544C106.918 26.216 107.198 25.048 107.758 24.04C108.318 23.032 109.086 22.256 110.062 21.712C111.054 21.168 112.158 20.896 113.374 20.896C115.022 20.896 116.31 21.416 117.238 22.456V16.192H120.982ZM114.022 31.12C114.966 31.12 115.75 30.8 116.374 30.16C116.998 29.504 117.31 28.632 117.31 27.544C117.31 26.456 116.998 25.592 116.374 24.952C115.75 24.296 114.966 23.968 114.022 23.968C113.062 23.968 112.27 24.296 111.646 24.952C111.022 25.592 110.71 26.456 110.71 27.544C110.71 28.632 111.022 29.504 111.646 30.16C112.27 30.8 113.062 31.12 114.022 31.12ZM124.447 21.088H128.191V34H124.447V21.088ZM126.319 19.288C125.631 19.288 125.071 19.088 124.639 18.688C124.207 18.288 123.991 17.792 123.991 17.2C123.991 16.608 124.207 16.112 124.639 15.712C125.071 15.312 125.631 15.112 126.319 15.112C127.007 15.112 127.567 15.304 127.999 15.688C128.431 16.072 128.647 16.552 128.647 17.128C128.647 17.752 128.431 18.272 127.999 18.688C127.567 19.088 127.007 19.288 126.319 19.288ZM144.986 21.088V31.84C144.986 34.208 144.37 35.968 143.138 37.12C141.906 38.272 140.106 38.848 137.738 38.848C136.49 38.848 135.306 38.696 134.186 38.392C133.066 38.088 132.138 37.648 131.402 37.072L132.89 34.384C133.434 34.832 134.122 35.184 134.954 35.44C135.786 35.712 136.618 35.848 137.45 35.848C138.746 35.848 139.698 35.552 140.306 34.96C140.93 34.384 141.242 33.504 141.242 32.32V31.768C140.266 32.84 138.906 33.376 137.162 33.376C135.978 33.376 134.89 33.12 133.898 32.608C132.922 32.08 132.146 31.344 131.57 30.4C130.994 29.456 130.706 28.368 130.706 27.136C130.706 25.904 130.994 24.816 131.57 23.872C132.146 22.928 132.922 22.2 133.898 21.688C134.89 21.16 135.978 20.896 137.162 20.896C139.034 20.896 140.458 21.512 141.434 22.744V21.088H144.986ZM137.906 30.304C138.898 30.304 139.706 30.016 140.33 29.44C140.97 28.848 141.29 28.08 141.29 27.136C141.29 26.192 140.97 25.432 140.33 24.856C139.706 24.264 138.898 23.968 137.906 23.968C136.914 23.968 136.098 24.264 135.458 24.856C134.818 25.432 134.498 26.192 134.498 27.136C134.498 28.08 134.818 28.848 135.458 29.44C136.098 30.016 136.914 30.304 137.906 30.304ZM161.478 21.088V34H157.926V32.464C157.43 33.024 156.838 33.456 156.15 33.76C155.462 34.048 154.718 34.192 153.918 34.192C152.222 34.192 150.878 33.704 149.886 32.728C148.894 31.752 148.398 30.304 148.398 28.384V21.088H152.142V27.832C152.142 29.912 153.014 30.952 154.758 30.952C155.654 30.952 156.374 30.664 156.918 30.088C157.462 29.496 157.734 28.624 157.734 27.472V21.088H161.478ZM172.795 20.896C174.395 20.896 175.683 21.376 176.659 22.336C177.651 23.296 178.147 24.72 178.147 26.608V34H174.403V27.184C174.403 26.16 174.179 25.4 173.731 24.904C173.283 24.392 172.635 24.136 171.787 24.136C170.843 24.136 170.091 24.432 169.531 25.024C168.971 25.6 168.691 26.464 168.691 27.616V34H164.947V21.088H168.523V22.6C169.019 22.056 169.635 21.64 170.371 21.352C171.107 21.048 171.915 20.896 172.795 20.896ZM194.785 21.088V34H191.209V32.512C190.281 33.632 188.937 34.192 187.177 34.192C185.961 34.192 184.857 33.92 183.865 33.376C182.889 32.832 182.121 32.056 181.561 31.048C181.001 30.04 180.721 28.872 180.721 27.544C180.721 26.216 181.001 25.048 181.561 24.04C182.121 23.032 182.889 22.256 183.865 21.712C184.857 21.168 185.961 20.896 187.177 20.896C188.825 20.896 190.113 21.416 191.041 22.456V21.088H194.785ZM187.825 31.12C188.769 31.12 189.553 30.8 190.177 30.16C190.801 29.504 191.113 28.632 191.113 27.544C191.113 26.456 190.801 25.592 190.177 24.952C189.553 24.296 188.769 23.968 187.825 23.968C186.865 23.968 186.073 24.296 185.449 24.952C184.825 25.592 184.513 26.456 184.513 27.544C184.513 28.632 184.825 29.504 185.449 30.16C186.073 30.8 186.865 31.12 187.825 31.12ZM220.336 17.2V34H216.568V31.96C215.416 33.512 213.72 34.288 211.48 34.288C209.496 34.288 207.944 33.664 206.824 32.416C205.72 31.152 205.168 29.36 205.168 27.04V17.2H209.056V26.92C209.056 28.264 209.368 29.28 209.992 29.968C210.632 30.64 211.496 30.976 212.584 30.976C213.752 30.976 214.688 30.616 215.392 29.896C216.096 29.16 216.448 28.08 216.448 26.656V17.2H220.336ZM230.08 20.32V30.88H232.984V34H223.264V30.88H226.192V20.32H223.264V17.2H232.984V20.32H230.08Z" fill="#1C1C28"/>
</svg>
