<svg width="501" height="425" viewBox="0 0 501 425" fill="none" xmlns="http://www.w3.org/2000/svg">
<path fill-rule="evenodd" clip-rule="evenodd" d="M235.709 1.76641C277.577 7.60236 303.238 47.5284 340.697 67.0837C388.023 91.7909 455.007 85.7921 483.28 131.012C512.22 177.298 501.658 240.355 480.48 290.651C460.241 338.716 417.572 373.398 371.148 397.313C329.603 418.716 282.398 414.273 235.709 416.746C185.764 419.391 133.2 436.343 89.4057 412.236C43.5547 386.997 8.17187 339.185 0.818233 287.447C-6.15605 238.379 33.2057 197.558 52.3955 151.847C69.513 111.074 72.7578 62.5491 107.006 34.5097C142.093 5.78381 190.762 -4.4988 235.709 1.76641Z" fill="#FCCC75"/>
</svg>
